<?xml version="1.0" encoding="UTF-8" standalone="no"?><!DOCTYPE svg PUBLIC "-//W3C//DTD SVG 1.1//EN" "http://www.w3.org/Graphics/SVG/1.1/DTD/svg11.dtd"><svg width="100%" height="100%" viewBox="0 0 128 128" version="1.1" xmlns="http://www.w3.org/2000/svg" xmlns:xlink="http://www.w3.org/1999/xlink" xml:space="preserve" xmlns:serif="http://www.serif.com/" style="fill-rule:evenodd;clip-rule:evenodd;"><path d="M125.843,15.98l0,95.88c0,7.717 -6.265,13.982 -13.982,13.982l-95.88,0c-7.717,0 -13.982,-6.265 -13.982,-13.982l0,-95.88c0,-7.717 6.265,-13.982 13.982,-13.982l95.88,0c7.717,0 13.982,6.265 13.982,13.982Z" style="fill:#363d52;stroke:#212532;stroke-width:4px;"/><g><path d="M22.898,80.195l0,3.329c27.37,23.806 54.741,23.806 82.111,0l0,-3.329l-82.111,0Z" style="fill:#fff;fill-rule:nonzero;"/><path d="M22.898,80.195l15.333,1.412c0.807,0.067 1.311,0.538 1.513,1.412l0.403,6.759l13.315,1.009l0.807,-6.153c0.134,-0.74 0.639,-1.244 1.513,-1.513l16.342,0c0.874,0.269 1.379,0.773 1.513,1.513l0.807,6.153l13.315,-1.009l0.403,-6.759c0.202,-0.874 0.706,-1.345 1.513,-1.412l15.333,-1.412l0,-24.815c2.018,-2.623 3.9,-5.346 5.649,-8.171c-2.354,-3.968 -5.144,-7.599 -8.372,-10.894c-2.892,1.345 -5.649,2.925 -8.272,4.741c-2.69,-2.488 -5.649,-4.64 -8.877,-6.456c0.471,-3.43 0.74,-6.86 0.807,-10.289c-3.968,-1.883 -8.104,-3.295 -12.408,-4.237c-1.748,2.892 -3.295,5.884 -4.64,8.978c-3.295,-0.471 -6.59,-0.471 -9.886,0c-1.345,-3.094 -2.892,-6.086 -4.64,-8.978c-4.304,0.942 -8.44,2.354 -12.407,4.237c0.067,3.43 0.336,6.86 0.807,10.289c-3.228,1.816 -6.187,3.968 -8.877,6.456c-2.623,-1.816 -5.38,-3.396 -8.272,-4.741c-3.228,3.295 -6.019,6.927 -8.372,10.894c1.748,2.824 3.631,5.548 5.649,8.171l0,24.815l-0,0Zm0,3.329l0,3.934c0,27.841 82.011,27.841 82.111,0l0,-3.934l-13.517,1.21l-0.504,6.96c-0.134,0.673 -0.605,1.11 -1.412,1.311l-16.342,1.11c-0.807,0 -1.345,-0.37 -1.614,-1.11l-1.009,-6.557l-13.315,0l-1.009,6.557c-0.269,0.74 -0.807,1.11 -1.614,1.11l-16.342,-1.11c-0.807,-0.202 -1.278,-0.639 -1.412,-1.311l-0.504,-6.96l-13.517,-1.21Z" style="fill:#478cbf;fill-rule:nonzero;"/><g><clipPath id="_clip1"><path d="M22.898,80.195l15.333,1.412c0.807,0.067 1.311,0.538 1.513,1.412l0.403,6.759l13.315,1.009l0.807,-6.153c0.134,-0.74 0.639,-1.244 1.513,-1.513l16.342,0c0.874,0.269 1.379,0.773 1.513,1.513l0.807,6.153l13.315,-1.009l0.403,-6.759c0.202,-0.874 0.706,-1.345 1.513,-1.412l15.333,-1.412l0,-24.815c2.018,-2.623 3.9,-5.346 5.649,-8.171c-2.354,-3.968 -5.144,-7.599 -8.372,-10.894c-2.892,1.345 -5.649,2.925 -8.272,4.741c-2.69,-2.488 -5.649,-4.64 -8.877,-6.456c0.471,-3.43 0.74,-6.86 0.807,-10.289c-3.968,-1.883 -8.104,-3.295 -12.408,-4.237c-1.748,2.892 -3.295,5.884 -4.64,8.978c-3.295,-0.471 -6.59,-0.471 -9.886,0c-1.345,-3.094 -2.892,-6.086 -4.64,-8.978c-4.304,0.942 -8.44,2.354 -12.407,4.237c0.067,3.43 0.336,6.86 0.807,10.289c-3.228,1.816 -6.187,3.968 -8.877,6.456c-2.623,-1.816 -5.38,-3.396 -8.272,-4.741c-3.228,3.295 -6.019,6.927 -8.372,10.894c1.748,2.824 3.631,5.548 5.649,8.171l0,24.815l-0,0Zm0,3.329l0,3.934c0,27.841 82.011,27.841 82.111,0l0,-3.934l-13.517,1.21l-0.504,6.96c-0.134,0.673 -0.605,1.11 -1.412,1.311l-16.342,1.11c-0.807,0 -1.345,-0.37 -1.614,-1.11l-1.009,-6.557l-13.315,0l-1.009,6.557c-0.269,0.74 -0.807,1.11 -1.614,1.11l-16.342,-1.11c-0.807,-0.202 -1.278,-0.639 -1.412,-1.311l-0.504,-6.96l-13.517,-1.21Z"/></clipPath><g clip-path="url(#_clip1)"><path d="M22.898,80.195l0,-24.815c-2.018,-2.623 -3.9,-5.346 -5.649,-8.171c2.354,-3.968 5.144,-7.599 8.372,-10.894c2.892,1.345 5.649,2.925 8.272,4.741c2.69,-2.488 5.649,-4.64 8.877,-6.456c-0.471,-3.43 -0.74,-6.86 -0.807,-10.289c3.968,-1.883 8.104,-3.295 12.407,-4.237c1.748,2.892 3.295,5.884 4.64,8.978c3.295,-0.471 6.59,-0.471 9.886,0c1.345,-3.094 2.892,-6.086 4.64,-8.978c4.304,0.942 8.44,2.354 12.407,4.237c-0.067,3.43 -0.336,6.86 -0.807,10.289c3.228,1.816 6.187,3.968 8.877,6.456c2.623,-1.816 5.38,-3.396 8.272,-4.741c3.228,3.295 6.019,6.927 8.372,10.894c-1.748,2.824 -3.631,5.548 -5.649,8.171l0,24.815l-15.333,1.412c-0.807,0.067 -1.311,0.538 -1.513,1.412l-0.403,6.759l-13.315,1.009l-0.807,-6.153c-0.134,-0.74 -0.639,-1.244 -1.513,-1.513l-16.342,0c-0.874,0.269 -1.379,0.773 -1.513,1.513l-0.807,6.153l-13.315,-1.009l-0.403,-6.759c-0.202,-0.874 -0.706,-1.345 -1.513,-1.412l-15.333,-1.412l0.001,0Z" style="fill:#2ad018;"/><path d="M22.898,83.524l13.517,1.21l0.504,6.96c0.134,0.673 0.605,1.11 1.412,1.311l16.342,1.11c0.807,0 1.345,-0.37 1.614,-1.11l1.009,-6.557l13.315,0l1.009,6.557c0.269,0.74 0.807,1.11 1.614,1.11l16.342,-1.11c0.807,-0.202 1.278,-0.639 1.412,-1.311l0.504,-6.96l13.517,-1.21l0,3.934c-0.101,27.841 -82.111,27.841 -82.111,0l-0,-3.934Z" style="fill:#2ad018;"/></g></g><path d="M61.029,72.831c0,3.43 5.851,3.43 5.851,0l0,-8.675c0,-3.43 -5.851,-3.43 -5.851,0l0,8.675Z" style="fill:#fff;fill-rule:nonzero;"/><circle cx="85.44" cy="65.366" r="9.079" style="fill:#fff;"/><circle cx="42.468" cy="65.366" r="9.079" style="fill:#fff;"/></g><g><circle cx="43.275" cy="65.972" r="6.052" style="fill:#414042;"/><circle cx="84.633" cy="65.972" r="6.052" style="fill:#414042;"/></g></svg>