<?xml version="1.0" encoding="UTF-8" standalone="no"?>
<!DOCTYPE svg PUBLIC "-//W3C//DTD SVG 1.1//EN" "http://www.w3.org/Graphics/SVG/1.1/DTD/svg11.dtd">
<svg width="100%" height="100%" viewBox="0 0 128 128" version="1.1" xmlns="http://www.w3.org/2000/svg" xmlns:xlink="http://www.w3.org/1999/xlink" xml:space="preserve" xmlns:serif="http://www.serif.com/" style="fill-rule:evenodd;clip-rule:evenodd;">
    <path d="M125.843,15.98L125.843,111.86C125.843,119.577 119.578,125.842 111.861,125.842L15.981,125.842C8.264,125.842 1.999,119.577 1.999,111.86L1.999,15.98C1.999,8.263 8.264,1.998 15.981,1.998L111.861,1.998C119.578,1.998 125.843,8.263 125.843,15.98Z" style="fill:rgb(54,61,82);stroke:rgb(33,37,50);stroke-width:4px;"/>
    <g>
        <path d="M22.898,80.195L22.898,83.524C50.268,107.33 77.639,107.33 105.009,83.524L105.009,80.195L22.898,80.195Z" style="fill:white;fill-rule:nonzero;"/>
        <path d="M22.898,80.195L38.231,81.607C39.038,81.674 39.542,82.145 39.744,83.019L40.147,89.778L53.462,90.787L54.269,84.634C54.403,83.894 54.908,83.39 55.782,83.121L72.124,83.121C72.998,83.39 73.503,83.894 73.637,84.634L74.444,90.787L87.759,89.778L88.162,83.019C88.364,82.145 88.868,81.674 89.675,81.607L105.008,80.195L105.008,55.38C107.026,52.757 108.908,50.034 110.657,47.209C108.303,43.241 105.513,39.61 102.285,36.315C99.393,37.66 96.636,39.24 94.013,41.056C91.323,38.568 88.364,36.416 85.136,34.6C85.607,31.17 85.876,27.74 85.943,24.311C81.975,22.428 77.839,21.016 73.535,20.074C71.787,22.966 70.24,25.958 68.895,29.052C65.6,28.581 62.305,28.581 59.009,29.052C57.664,25.958 56.117,22.966 54.369,20.074C50.065,21.016 45.929,22.428 41.962,24.311C42.029,27.741 42.298,31.171 42.769,34.6C39.541,36.416 36.582,38.568 33.892,41.056C31.269,39.24 28.512,37.66 25.62,36.315C22.392,39.61 19.601,43.242 17.248,47.209C18.996,50.033 20.879,52.757 22.897,55.38L22.897,80.195L22.898,80.195ZM22.898,83.524L22.898,87.458C22.898,115.299 104.909,115.299 105.009,87.458L105.009,83.524L91.492,84.734L90.988,91.694C90.854,92.367 90.383,92.804 89.576,93.005L73.234,94.115C72.427,94.115 71.889,93.745 71.62,93.005L70.611,86.448L57.296,86.448L56.287,93.005C56.018,93.745 55.48,94.115 54.673,94.115L38.331,93.005C37.524,92.803 37.053,92.366 36.919,91.694L36.415,84.734L22.898,83.524Z" style="fill:rgb(71,140,191);fill-rule:nonzero;"/>
        <g>
            <g>
                <clipPath id="_clip1">
                    <path d="M22.898,80.195L38.231,81.607C39.038,81.674 39.542,82.145 39.744,83.019L40.147,89.778L53.462,90.787L54.269,84.634C54.403,83.894 54.908,83.39 55.782,83.121L72.124,83.121C72.998,83.39 73.503,83.894 73.637,84.634L74.444,90.787L87.759,89.778L88.162,83.019C88.364,82.145 88.868,81.674 89.675,81.607L105.008,80.195L105.008,55.38C107.026,52.757 108.908,50.034 110.657,47.209C108.303,43.241 105.513,39.61 102.285,36.315C99.393,37.66 96.636,39.24 94.013,41.056C91.323,38.568 88.364,36.416 85.136,34.6C85.607,31.17 85.876,27.74 85.943,24.311C81.975,22.428 77.839,21.016 73.535,20.074C71.787,22.966 70.24,25.958 68.895,29.052C65.6,28.581 62.305,28.581 59.009,29.052C57.664,25.958 56.117,22.966 54.369,20.074C50.065,21.016 45.929,22.428 41.962,24.311C42.029,27.741 42.298,31.171 42.769,34.6C39.541,36.416 36.582,38.568 33.892,41.056C31.269,39.24 28.512,37.66 25.62,36.315C22.392,39.61 19.601,43.242 17.248,47.209C18.996,50.033 20.879,52.757 22.897,55.38L22.897,80.195L22.898,80.195ZM22.898,83.524L22.898,87.458C22.898,115.299 104.909,115.299 105.009,87.458L105.009,83.524L91.492,84.734L90.988,91.694C90.854,92.367 90.383,92.804 89.576,93.005L73.234,94.115C72.427,94.115 71.889,93.745 71.62,93.005L70.611,86.448L57.296,86.448L56.287,93.005C56.018,93.745 55.48,94.115 54.673,94.115L38.331,93.005C37.524,92.803 37.053,92.366 36.919,91.694L36.415,84.734L22.898,83.524Z"/>
                </clipPath>
                <g clip-path="url(#_clip1)">
                    <path d="M22.898,80.195L22.898,55.38C20.88,52.757 18.998,50.034 17.249,47.209C19.603,43.241 22.393,39.61 25.621,36.315C28.513,37.66 31.27,39.24 33.893,41.056C36.583,38.568 39.542,36.416 42.77,34.6C42.299,31.17 42.03,27.74 41.963,24.311C45.931,22.428 50.067,21.016 54.37,20.074C56.118,22.966 57.665,25.958 59.01,29.052C62.305,28.581 65.6,28.581 68.896,29.052C70.241,25.958 71.788,22.966 73.536,20.074C77.84,21.016 81.976,22.428 85.943,24.311C85.876,27.741 85.607,31.171 85.136,34.6C88.364,36.416 91.323,38.568 94.013,41.056C96.636,39.24 99.393,37.66 102.285,36.315C105.513,39.61 108.304,43.242 110.657,47.209C108.909,50.033 107.026,52.757 105.008,55.38L105.008,80.195L89.675,81.607C88.868,81.674 88.364,82.145 88.162,83.019L87.759,89.778L74.444,90.787L73.637,84.634C73.503,83.894 72.998,83.39 72.124,83.121L55.782,83.121C54.908,83.39 54.403,83.894 54.269,84.634L53.462,90.787L40.147,89.778L39.744,83.019C39.542,82.145 39.038,81.674 38.231,81.607L22.898,80.195L22.899,80.195L22.898,80.195Z" style="fill:rgb(255,0,0);"/>
                    <path d="M22.898,83.524L36.415,84.734L36.919,91.694C37.053,92.367 37.524,92.804 38.331,93.005L54.673,94.115C55.48,94.115 56.018,93.745 56.287,93.005L57.296,86.448L70.611,86.448L71.62,93.005C71.889,93.745 72.427,94.115 73.234,94.115L89.576,93.005C90.383,92.803 90.854,92.366 90.988,91.694L91.492,84.734L105.009,83.524L105.009,87.458C104.908,115.299 22.898,115.299 22.898,87.458L22.898,83.524Z" style="fill:rgb(255,0,0);"/>
                </g>
            </g>
        </g>
        <path d="M61.029,72.831C61.029,76.261 66.88,76.261 66.88,72.831L66.88,64.156C66.88,60.726 61.029,60.726 61.029,64.156L61.029,72.831Z" style="fill:white;fill-rule:nonzero;"/>
        <circle cx="85.44" cy="65.366" r="9.079" style="fill:white;"/>
        <circle cx="42.468" cy="65.366" r="9.079" style="fill:white;"/>
    </g>
    <g>
        <circle cx="43.275" cy="65.972" r="6.052" style="fill:rgb(65,64,66);"/>
        <circle cx="84.633" cy="65.972" r="6.052" style="fill:rgb(65,64,66);"/>
    </g>
</svg>
